<svg height="24" width="24" xmlns="http://www.w3.org/2000/svg"><circle cx="12" cy="12" fill="#6d97c4" r="9.5" stroke="#445e75" stroke-miterlimit="10"/><g fill="#fff"><path d="m4.3057227 13.721911c.2424856-2.788914.7870842-4.46213 2.5189339-6.1939793 1.8703187-1.87032 3.6025004-2.7382322 6.8753914-3.4829155 1.607958-.365715-1.177314-1.5781419-5.0315735-.1361492-2.070403.7744965-4.1719438 2.7958718-4.9093385 5.741475-.8934195 3.566391.4356126 5.348593.5465867 4.071569z" opacity=".3" stroke-width=".658328"/><path d="m10.629067 7.1771434c0-.5669348.708668-1.052879 1.599566-1.052879 1.13387 0 1.619814 1.052879 1.619814 2.227244 0 1.0123837-.404954 1.7615476-1.113622 2.3892256-1.437585 1.316099-1.437585 2.470216-1.437585 3.300371v.303715c0 .445448.101238.688421.647926.688421.566934 0 .668173-.18223.668173-.688421v-.26322c0-1.457833.708668-2.00452 1.275603-2.409473 1.012384-.749164 2.287987-1.680557 2.287987-3.1788849 0-1.8627859-1.437584-3.0978939-3.745819-3.0978939-1.235108 0-2.166501.2834674-2.7739314.7896592-.6884209.5669349-1.0731267 1.0326313-1.0731267 1.7412999 0 .7694116.6681732 1.174365 1.1541174 1.174365.6074297 0 1.0731267-.3239627 1.0731267-.8301546 0-.5466871-.182229-.6681732-.182229-1.0933743zm-.121486 10.3668086c0 .769412.647925 1.376842 1.457832 1.376842s1.498328-.647926 1.498328-1.417337c0-.78966-.647925-1.39709-1.457832-1.39709s-1.498328.647926-1.498328 1.437585z" fill="#faffff" stroke="#34497d" stroke-width=".474555"/></g></svg>