<svg height="24" viewBox="0 0 24 24" width="24" xmlns="http://www.w3.org/2000/svg"><path d="m13.957039 19.817523c-.302247-.220593-.833672-.337007-1.032804-.681913-.764192-1.323621-.310687-3.016129 1.012934-3.780322s3.01613-.310686 3.780323 1.012934c.199131.344907.03424.863342.07416 1.235391l4.793256-2.767388-2.767385-4.793255c.372106-.03995.890481.124983 1.235378-.07414 1.323609-.7641874 1.777134-2.456704 1.012939-3.780327-.764198-1.3236244-2.456723-1.77712-3.780333-1.0129329-.344933.1991467-.461321.7305539-.6819 1.0327969l-2.767387-4.7932576-4.793258 2.7673881c.302245.2205921.833673.337007 1.032803.6819125.764194 1.3236211.310687 3.0161285-1.012934 3.7803215-1.3236211.7641939-3.0161299.3106868-3.7803224-1.0129346-.1991315-.3449046-.0342434-.8633413-.0741591-1.2353892l-4.7932565 2.767388 2.767388 4.7932573c-.3720346.03991-.8904398-.125004-1.235373.07414-1.3236098.764186-1.7771342 2.456703-1.0129416 3.780324.7641943 1.323623 2.4567202 1.77712 3.78033 1.012933.3448968-.199126.4612443-.730519.6818996-1.032798l2.7673872 4.793255z" fill="#2e3436" stroke="#000" stroke-linecap="round" stroke-linejoin="round" stroke-width=".830216"/></svg>